<mxfile host="app.diagrams.net" modified="2024-03-25T07:12:49.298Z" agent="Mozilla/5.0 (Macintosh; Intel Mac OS X 10_15_7) AppleWebKit/537.36 (KHTML, like Gecko) Chrome/123.0.0.0 Safari/537.36" etag="ua2CTGpTL38NcFpmHnXb" version="24.0.7" type="github">
  <diagram id="3228e29e-7158-1315-38df-8450db1d8a1d" name="Page-1">
    <mxGraphModel dx="1306" dy="542" grid="0" gridSize="10" guides="1" tooltips="1" connect="1" arrows="1" fold="1" page="1" pageScale="1" pageWidth="700" pageHeight="220" background="#EFF1F3" math="0" shadow="0">
      <root>
        <mxCell id="0" />
        <mxCell id="1" parent="0" />
        <mxCell id="D7VS0WEbVSilx6UqDnpJ-3" value="" style="shape=flexArrow;endArrow=classic;html=1;rounded=0;fontSize=19;fontColor=#FFFFFF;strokeColor=none;fillColor=#FDD276;" parent="1" edge="1">
          <mxGeometry width="50" height="50" relative="1" as="geometry">
            <mxPoint x="202" y="318" as="sourcePoint" />
            <mxPoint x="269" y="318" as="targetPoint" />
          </mxGeometry>
        </mxCell>
        <mxCell id="D7VS0WEbVSilx6UqDnpJ-6" value="&lt;font color=&quot;#4a919b&quot;&gt;密文&lt;/font&gt;" style="text;html=1;strokeColor=none;fillColor=none;align=center;verticalAlign=middle;whiteSpace=wrap;rounded=0;fontSize=19;fontColor=#FFFFFF;" parent="1" vertex="1">
          <mxGeometry x="295" y="371" width="91" height="30" as="geometry" />
        </mxCell>
        <mxCell id="mOebbfBG10x5W4ijN7ml-2" value="" style="shape=image;verticalLabelPosition=bottom;verticalAlign=top;imageAspect=0;aspect=fixed;image=data:image/svg+xml,PHN2ZyB4bWxuczp4bGluaz0iaHR0cDovL3d3dy53My5vcmcvMTk5OS94bGluayIgeG1sbnM9Imh0dHA6Ly93d3cudzMub3JnLzIwMDAvc3ZnIiBoZWlnaHQ9IjIwMCIgd2lkdGg9IjIwMCIgdmVyc2lvbj0iMS4xIiB2aWV3Qm94PSIwIDAgMTAyNCAxMDI0IiBjbGFzcz0iaWNvbiI+PHBhdGggZmlsbD0iIzRBOTE5QiIgZD0iTTQ0Ni42ODA0MDcgNTEzLjcwNDcyNmgxMzYuMDc4NzM5djUxMC4yOTUyNzRoLTEzNi4wNzg3Mzl6Ii8+PHBhdGggZmlsbD0iIzRBOTE5QiIgZD0iTTUzMi40MTAwMTMgNjY2Ljc5MzMwOGgxMTUuNjY2OTI4djEzNi4wNzg3NEg1MzIuNDEwMDEzek01MzIuNDEwMDEzIDg0My42OTU2N2gxNDkuNjg2NjEzdjEzNi4wNzg3NEg1MzIuNDEwMDEzek01MTEuOTk4MjAyIDU4NS4xNDYwNjVBMjkwLjUyODEwOSAyOTAuNTI4MTA5IDAgMCAxIDIxOS40Mjg5MTIgMjkyLjU3Njc3NSAyOTAuNTI4MTA5IDI5MC41MjgxMDkgMCAwIDEgNTExLjk5ODIwMiAwLjAwNzQ4NGEyOTAuNTI4MTA5IDI5MC41MjgxMDkgMCAwIDEgMjkyLjU2OTI5IDI5Mi41NjkyOTEgMjkwLjUyODEwOSAyOTAuNTI4MTA5IDAgMCAxLTI5Mi41NjkyOSAyOTIuNTY5Mjl6IG0wLTQ0OS4wNTk4NDFBMTUzLjc2ODk3NiAxNTMuNzY4OTc2IDAgMCAwIDM1NS41MDc2NTEgMjkyLjU3Njc3NWExNTMuNzY4OTc2IDE1My43Njg5NzYgMCAwIDAgMTU2LjQ5MDU1MSAxNTYuNDkwNTUgMTUzLjc2ODk3NiAxNTMuNzY4OTc2IDAgMCAwIDE1Ni40OTA1NS0xNTYuNDkwNTVBMTUzLjc2ODk3NiAxNTMuNzY4OTc2IDAgMCAwIDUxMS45OTgyMDIgMTM2LjA4NjIyNHoiLz48L3N2Zz4=" parent="1" vertex="1">
          <mxGeometry x="210" y="259" width="47" height="47" as="geometry" />
        </mxCell>
        <mxCell id="mOebbfBG10x5W4ijN7ml-9" value="" style="shape=flexArrow;endArrow=classic;html=1;rounded=0;fontSize=19;fontColor=#FFFFFF;strokeColor=none;fillColor=#FDD276;" parent="1" edge="1">
          <mxGeometry width="50" height="50" relative="1" as="geometry">
            <mxPoint x="415" y="318" as="sourcePoint" />
            <mxPoint x="482" y="318" as="targetPoint" />
          </mxGeometry>
        </mxCell>
        <mxCell id="mOebbfBG10x5W4ijN7ml-13" value="" style="shape=image;verticalLabelPosition=bottom;labelBackgroundColor=default;verticalAlign=top;aspect=fixed;imageAspect=0;image=data:image/svg+xml,PHN2ZyB4bWxuczp4bGluaz0iaHR0cDovL3d3dy53My5vcmcvMTk5OS94bGluayIgeG1sbnM9Imh0dHA6Ly93d3cudzMub3JnLzIwMDAvc3ZnIiBoZWlnaHQ9IjIwMCIgd2lkdGg9IjIwMCIgdmVyc2lvbj0iMS4xIiB2aWV3Qm94PSIwIDAgMTAyNCAxMDI0IiBjbGFzcz0iaWNvbiI+PHBhdGggZmlsbD0iIzRBOTE5QiIgZD0iTTcyMC42NCAyNC4zMkgyNDUuNzZDMTYwIDI0LjMyIDkwLjg4IDkzLjQ0IDkwLjg4IDE3OS4ydjY0My44NGMwIDQwLjk2IDE2LjY0IDc5LjM2IDQ2LjA4IDEwOC44IDI2Ljg4IDI2Ljg4IDYxLjQ0IDQyLjI0IDk4LjU2IDQ0LjhoMjEzLjc2YzE5LjIgMCAzNC41Ni0xNS4zNiAzNC41Ni0zNC41NnMtMTUuMzYtMzQuNTYtMzQuNTYtMzQuNTZIMjQ1Ljc2Yy00Ni4wOCAwLTg0LjQ4LTM4LjQtODQuNDgtODQuNDhWMTc5LjJjMC00Ni4wOCAzOC40LTg0LjQ4IDg0LjQ4LTg0LjQ4aDQ3NC44OGM0Ni4wOCAwIDg0LjQ4IDM4LjQgODQuNDggODQuNDh2MjgyLjg4YzAgMTkuMiAxNS4zNiAzNC41NiAzNC41NiAzNC41NnMzNC41Ni0xNS4zNiAzNC41Ni0zNC41NlYxNzkuMmMwLTg1Ljc2LTY5LjEyLTE1NC44OC0xNTMuNi0xNTQuODh6Ii8+PHBhdGggZmlsbD0iIzRBOTE5QiIgZD0iTTY3OC40IDI0OS42SDI4Mi44OGMtMTkuMiAwLTM0LjU2IDE1LjM2LTM0LjU2IDM0LjU2IDAgMTkuMiAxNS4zNiAzNC41NiAzNC41NiAzNC41Nkg2NzguNGMxOS4yIDAgMzQuNTYtMTUuMzYgMzQuNTYtMzQuNTYgMS4yOC0xOS4yLTE0LjA4LTM0LjU2LTM0LjU2LTM0LjU2ek01MjguNjQgNDYzLjM2SDI4Mi44OGMtMTkuMiAwLTM0LjU2IDE1LjM2LTM0LjU2IDM0LjU2IDAgMTkuMiAxNS4zNiAzNC41NiAzNC41NiAzNC41NmgyNDQuNDhjOC45NiAwIDE3LjkyLTMuODQgMjQuMzItMTAuMjRzMTAuMjQtMTUuMzYgMTAuMjQtMjUuNmMxLjI4LTE3LjkyLTE0LjA4LTMzLjI4LTMzLjI4LTMzLjI4ek0zODcuODQgNjc3LjEyaC0xMDMuNjhjLTEyLjggMC0yNC4zMiA2LjQtMzAuNzIgMTcuOTItNi40IDEwLjI0LTYuNCAyNC4zMiAwIDM0LjU2IDYuNCAxMC4yNCAxNy45MiAxNy45MiAzMC43MiAxNy45MmgxMDMuNjhjMTIuOCAwIDI0LjMyLTYuNCAzMC43Mi0xNy45MiA2LjQtMTAuMjQgNi40LTI0LjMyIDAtMzQuNTYtNy42OC0xMC4yNC0xOS4yLTE3LjkyLTMwLjcyLTE3LjkyeiIvPjxwYXRoIGZpbGw9IiM0QTkxOUIiIGQ9Ik04NzYuOCA5OTkuNjhINjE2Ljk2Yy0zMiAwLTU2LjMyLTI4LjE2LTU2LjMyLTYwLjE2Vjc1OS4wNGMwLTM0LjU2IDI1LjYtNjAuMTYgNTYuMzItNjAuMTZoMTUuMzZjMC02LjQtMi41Ni0xNS4zNi0yLjU2LTIxLjc2di0yNS42YzAtNjIuNzIgNTEuMi0xMTYuNDggMTE2LjQ4LTExNi40OCA2Mi43MiAwIDExNi40OCA1MS4yIDExNi40OCAxMTYuNDh2MjEuNzZjMCA4Ljk2IDAgMTUuMzYtMi41NiAyMS43NmgxNS4zNmMzMiAwIDU2LjMyIDI4LjE2IDU2LjMyIDYwLjE2djE4MC40OGMxLjI4IDM4LjQtMjQuMzIgNjQtNTUuMDQgNjR6TTcyNC40OCA4NTMuNzZ2NTMuNzZjMCAxMi44IDguOTYgMjEuNzYgMjEuNzYgMjEuNzZzMjEuNzYtOC45NiAyMS43Ni0yMS43NnYtNTMuNzZjMTIuOC04Ljk2IDIxLjc2LTIxLjc2IDIxLjc2LTQwLjk2IDIuNTYtMjEuNzYtMTkuMi00NC44LTQ0LjgtNDQuOHMtNDcuMzYgMjEuNzYtNDcuMzYgNDcuMzZjMS4yOCAxNi42NCAxMS41MiAzMiAyNi44OCAzOC40eiBtOTIuMTYtMjAyLjI0YzAtMzguNC0zMi02OS4xMi02OS4xMi02OS4xMi0zOC40IDAtNjkuMTIgMzItNjkuMTIgNjkuMTJ2NDcuMzZoMTM5LjUydi00Ny4zNnogbTAgMCIvPjwvc3ZnPg==;" parent="1" vertex="1">
          <mxGeometry x="290" y="267" width="101" height="101" as="geometry" />
        </mxCell>
        <mxCell id="BxkpXKa9KFCufEpOCjpc-1" value="" style="shape=image;verticalLabelPosition=bottom;verticalAlign=top;imageAspect=0;aspect=fixed;image=data:image/svg+xml,PHN2ZyB4bWxuczp4bGluaz0iaHR0cDovL3d3dy53My5vcmcvMTk5OS94bGluayIgeG1sbnM9Imh0dHA6Ly93d3cudzMub3JnLzIwMDAvc3ZnIiBoZWlnaHQ9IjIwMCIgd2lkdGg9IjIwMCIgdmVyc2lvbj0iMS4xIiB2aWV3Qm94PSIwIDAgMTAyNCAxMDI0IiBjbGFzcz0iaWNvbiI+PHBhdGggZmlsbD0iIzUzNUU4MCIgZD0iTTQ0Ni42ODA0MDcgNTEzLjcwNDcyNmgxMzYuMDc4NzM5djUxMC4yOTUyNzRoLTEzNi4wNzg3Mzl6Ii8+PHBhdGggZmlsbD0iIzUzNUU4MCIgZD0iTTUzMi40MTAwMTMgNjY2Ljc5MzMwOGgxMTUuNjY2OTI4djEzNi4wNzg3NEg1MzIuNDEwMDEzek01MzIuNDEwMDEzIDg0My42OTU2N2gxNDkuNjg2NjEzdjEzNi4wNzg3NEg1MzIuNDEwMDEzek01MTEuOTk4MjAyIDU4NS4xNDYwNjVBMjkwLjUyODEwOSAyOTAuNTI4MTA5IDAgMCAxIDIxOS40Mjg5MTIgMjkyLjU3Njc3NSAyOTAuNTI4MTA5IDI5MC41MjgxMDkgMCAwIDEgNTExLjk5ODIwMiAwLjAwNzQ4NGEyOTAuNTI4MTA5IDI5MC41MjgxMDkgMCAwIDEgMjkyLjU2OTI5IDI5Mi41NjkyOTEgMjkwLjUyODEwOSAyOTAuNTI4MTA5IDAgMCAxLTI5Mi41NjkyOSAyOTIuNTY5Mjl6IG0wLTQ0OS4wNTk4NDFBMTUzLjc2ODk3NiAxNTMuNzY4OTc2IDAgMCAwIDM1NS41MDc2NTEgMjkyLjU3Njc3NWExNTMuNzY4OTc2IDE1My43Njg5NzYgMCAwIDAgMTU2LjQ5MDU1MSAxNTYuNDkwNTUgMTUzLjc2ODk3NiAxNTMuNzY4OTc2IDAgMCAwIDE1Ni40OTA1NS0xNTYuNDkwNTVBMTUzLjc2ODk3NiAxNTMuNzY4OTc2IDAgMCAwIDUxMS45OTgyMDIgMTM2LjA4NjIyNHoiLz48L3N2Zz4=" parent="1" vertex="1">
          <mxGeometry x="425" y="259" width="47" height="47" as="geometry" />
        </mxCell>
        <mxCell id="OxyKKiLQindW6FY5Xs8T-1" value="&lt;font color=&quot;#4a919b&quot; style=&quot;font-size: 14px;&quot;&gt;&lt;b&gt;服务器公钥&lt;/b&gt;&lt;/font&gt;" style="text;html=1;strokeColor=none;fillColor=none;align=center;verticalAlign=middle;whiteSpace=wrap;rounded=0;fontSize=19;fontColor=#FFFFFF;" parent="1" vertex="1">
          <mxGeometry x="188" y="229" width="91" height="30" as="geometry" />
        </mxCell>
        <mxCell id="OxyKKiLQindW6FY5Xs8T-2" value="&lt;font color=&quot;#535e80&quot; style=&quot;font-size: 14px;&quot;&gt;&lt;b style=&quot;&quot;&gt;服务器私钥&lt;/b&gt;&lt;/font&gt;" style="text;html=1;strokeColor=none;fillColor=none;align=center;verticalAlign=middle;whiteSpace=wrap;rounded=0;fontSize=19;fontColor=#FFFFFF;" parent="1" vertex="1">
          <mxGeometry x="403" y="229" width="91" height="30" as="geometry" />
        </mxCell>
        <mxCell id="X9pPTWAd0B1B3PWVvgkX-1" value="&lt;font style=&quot;font-size: 21px;&quot;&gt;pre master&lt;/font&gt;" style="text;html=1;strokeColor=none;fillColor=none;align=center;verticalAlign=middle;whiteSpace=wrap;rounded=0;fontColor=#4A919B;" parent="1" vertex="1">
          <mxGeometry x="38" y="330.5" width="165" height="30" as="geometry" />
        </mxCell>
        <mxCell id="X9pPTWAd0B1B3PWVvgkX-2" value="" style="shape=image;verticalLabelPosition=bottom;verticalAlign=top;imageAspect=0;aspect=fixed;image=data:image/svg+xml,PHN2ZyB4bWxuczp4bGluaz0iaHR0cDovL3d3dy53My5vcmcvMTk5OS94bGluayIgeG1sbnM9Imh0dHA6Ly93d3cudzMub3JnLzIwMDAvc3ZnIiBoZWlnaHQ9IjIwMCIgd2lkdGg9IjIwMCIgdmVyc2lvbj0iMS4xIiB2aWV3Qm94PSIwIDAgMTAyNCAxMDI0IiBjbGFzcz0iaWNvbiI+PHBhdGggZmlsbD0iIzRBOTE5QiIgZD0iTTQyMS4zNzYgNDgxLjI4czExNy4yNDggMjQuNTc2IDE3NS4xMDQtOC43MDRjMCAwLTg5LjYgNzAuMTQ0LTg5LjYgMTY2LjQgMC41MTItMC41MTItOC4xOTItMTIxLjM0NC04NS41MDQtMTU3LjY5NnpNNDM4Ljc4NCA5NjkuMjE2czY4LjYwOCA2LjY1NiA2OC42MDgtODAuODk2YzAgMCAzLjA3MiA4OC41NzYgNjUuMDI0IDc4LjMzNiAwIDAuNTEyLTUwLjY4OCAyMi4wMTYtMTMzLjYzMiAyLjU2ek0xNjEuMjggMjM4LjA4cy0zMC4yMDggNjUuNTM2IDExLjI2NCA5MS42NDhjMCAwLTY3LjA3Mi0xNy40MDgtODEuNDA4IDM3LjM3NiAwIDAgOC43MDQtODIuOTQ0IDcwLjE0NC0xMjkuMDI0ek04NTcuNiAyMjcuMzI4czQ5LjE1MiA1MC4xNzYgMS4wMjQgODEuNDA4YzAgMCA1OC44OC0xOC40MzIgNjYuNTYgMzYuMzUyIDAgMCA1LjEyLTY5LjYzMi02Ny41ODQtMTE3Ljc2eiIvPjxwYXRoIGZpbGw9IiM0QTkxOUIiIGQ9Ik00NDMuMzkyIDk3MC43NTJjLTUuNjMyIDAtMTAuNzUyLTEuMDI0LTE1LjM2LTMuMDcybC0yNzAuODQ4LTE1Ny4xODQtMS41MzYtMS4wMjRzLTEuMDI0LTEuMDI0LTQuNjA4LTIuNTZjLTUxLjItMjkuMTg0LTYyLjk3Ni05NC4yMDgtNjUuNTM2LTEyMC44MzJWMzg2LjU2YzAtMy4wNzIgMC41MTItNy4xNjggMS4wMjQtMTEuMjY0bDAuNTEyLTMuNTg0IDEuMDI0LTIuNTZjMTkuNDU2LTUwLjY4OCA3Ni44LTUxLjIgMTAzLjkzNi00NC4wMzJsLTEuNTM2IDUuNjMyIDQuMDk2LTYuMTQ0TDQ3Ni4xNiA0ODYuNGwxOC45NDQgMzcuODg4YzIwLjk5MiAzNi44NjQgMjkuMTg0IDc3LjgyNCAzMi43NjggOTkuODR2MjU4LjA0OGMtNC42MDggNTYuMzItMzYuODY0IDc2LjI4OC01NS44MDggODIuOTQ0LTEuMDI0IDAuNTEyLTE1LjM2IDUuNjMyLTI4LjY3MiA1LjYzMnogbS0yNjIuMTQ0LTE5Ni4wOTZsMjYzLjE2OCAxNTIuNTc2YzEyLjI4OC0wLjUxMiAzNi44NjQtNi42NTYgNDAuNDQ4LTQ4LjEyOHYtMjUwLjM2OGMtNC42MDgtMzEuNzQ0LTIwLjk5Mi0xMDMuOTM2LTcyLjE5Mi0xMjhMMzIyLjU2IDQ0NS40NGwxLjUzNiAzLjA3Mi0xNDIuMzM2LTgyLjQzMmMtMi4wNDgtMC41MTItNDAuNDQ4LTkuMjE2LTUyLjczNiAxNS44NzItMC41MTIgMi41Ni0wLjUxMiA0LjYwOC0wLjUxMiA2LjE0NHYyOTQuNGMxLjUzNiAxNi44OTYgOS43MjggNjcuMDcyIDQzLjUyIDg2LjUyOCAzLjU4NCAyLjA0OCA2LjY1NiA0LjA5NiA5LjIxNiA1LjYzMnoiLz48cGF0aCBmaWxsPSIjNEE5MTlCIiBkPSJNODM3LjYzMiAyMTIuOTkyYzYuNjU2IDQuMDk2IDEyLjggNy4xNjggMTguNDMyIDEwLjc1MmwxLjUzNiAxLjAyNCAxLjUzNiAxLjUzNmM1LjEyIDQuMDk2IDEwLjc1MiA5LjIxNiAxNi4zODQgMTUuMzYgNi4xNDQgMTEuNzc2IDUuNjMyIDMzLjI4IDQuNjA4IDQ5LjE1Mi0xLjAyNCAxMi4yODgtNi42NTYgMzAuMjA4LTI2LjYyNCA0NC41NDRsLTEuMDI0IDAuNTEyLTI0Ny44MDggMTU2LjY3MmMtMjYuNjI0IDE0LjMzNi02Mi45NzYgMTguNDMyLTk2LjI1NiAxOC40MzItNDAuOTYgMC03Ny44MjQtNi42NTYtODkuMDg4LTguNzA0bC0zLjA3Mi0wLjUxMi0yNDUuMjQ4LTE0Mi4zMzZjLTM5LjQyNC0yOS42OTYtMjguMTYtODUuNTA0LTE1LjM2LTExMy42NjRsMi41Ni02LjE0NCAyNjMuNjgtMTY2LjkxMmMyOS4xODQtMTQuMzM2IDEwNC40NDgtNDMuMDA4IDE3My4wNTYtMS4wMjQgMy41ODQgMi41NiA1OC4zNjggMzQuMzA0IDExOS4yOTYgNjkuNjMyTTQzMS42MTYgNDYwLjhjNDAuNDQ4IDcuMTY4IDExNC4xNzYgMTMuODI0IDE1Mi41NzYtNi4xNDRsMjQ0LjczNi0xNTUuMTM2YzcuMTY4LTUuNjMyIDguMTkyLTEwLjI0IDguNzA0LTEyLjggMS4wMjQtMTEuMjY0LTkuNzI4LTI2LjYyNC0xNS4zNi0zMi43NjgtNTUuODA4LTMyLjI1Ni0yNDMuNzEyLTE0MS4zMTItMjUwLjM2OC0xNDUuNDA4LTQ5LjY2NC0zMC43Mi0xMDcuMDA4LTkuMjE2LTEzMC4wNDggMi41NkwxOTIuNTEyIDI2OC44Yy00LjA5NiAxMi4yODgtMTIuMjg4IDQyLjQ5NiAzLjU4NCA1NS44MDhsMjM1LjUyIDEzNi4xOTJ6Ii8+PHBhdGggZmlsbD0iIzRBOTE5QiIgZD0iTTgzMS40ODggMjk5LjAwOGM0LjA5Ni0xLjAyNCAzOC40LTExLjI2NCA2Ni4wNDggNi4xNDQgNy4xNjggNC42MDggMTcuOTIgMTEuNzc2IDI0LjA2NCAyNC41NzYgMS4wMjQgNS42MzIgNC4wOTYgMTAuNzUyIDQuNjA4IDE2Ljg5NnYyLjA0OGwtMS4wMjQgMzIzLjA3MmMtNS4xMiAzNS4zMjgtMjIuNTI4IDkxLjY0OC03Ny4zMTIgMTI1LjQ0bC01LjEyIDMuNTg0aC0xLjAyNGwtMjYyLjE0NCAxNjUuODg4LTQuNjA4IDAuNTEyYy00LjA5NiAwLjUxMi04LjcwNCAxLjAyNC0xMi44IDEuMDI0LTE1Ljg3MiAwLTMwLjIwOC01LjEyLTQxLjk4NC0xNC44NDgtMjQuNTc2LTIwLjQ4LTMyLjc2OC01NS44MDgtMzUuMzI4LTczLjcyOGwtMS4wMjQtMjUyLjkyOGgxLjUzNmM2LjE0NC05Ni43NjggODguNTc2LTE2NC44NjQgOTYuNzY4LTE3MS4wMDhsLTAuNTEyLTAuNTEyTDgyOS40NCAyOTkuNTJtLTMwMS4wNTYgNTY3LjgwOGMwLjUxMiAxMC4yNCA1LjEyIDQxLjQ3MiAxOS45NjggNTMuNzYgMy4wNzIgMi41NiA3LjY4IDUuNjMyIDE2LjM4NCA1LjEybDI2NC43MDQtMTY3LjkzNmM1Ni4zMi0zOC40IDUzLjc2LTExNS43MTIgNTMuNzYtMTE2LjIyNGwtMC41MTItMzIuMjU2IDEuMDI0LTI1MC4zNjhoLTAuNTEyYy0xLjUzNi0xMi44LTcuMTY4LTE2LjM4NC04LjcwNC0xNy40MDgtOC43MDQtNS42MzItMjMuNTUyLTMuMDcyLTI4LjY3Mi0yLjA0OGwtMjM1LjUyIDE0OC45OTJjLTEuMDI0IDAuNTEyLTgwLjg5NiA2NS4wMjQtODAuODk2IDE0OS41MDRoLTEuNTM2bDAuNTEyIDIyOC44NjR6TTQzNS4yIDI2NC4xOTJjMCAyNy42NDggMzEuNzQ0IDUwLjE3NiA3MS4xNjggNTAuMTc2czcxLjE2OC0yMi41MjggNzEuMTY4LTUwLjE3Ni0zMS43NDQtNTAuMTc2LTcxLjE2OC01MC4xNzZTNDM1LjIgMjM2LjU0NCA0MzUuMiAyNjQuMTkyeiIvPjxwYXRoIGZpbGw9IiM0QTkxOUIiIGQ9Ik02NjMuNTUyIDc4Mi44NDhjMCAzMC43Mi0yMi41MjggNjcuMDcyLTQ5LjY2NCA4MC4zODQtMjcuNjQ4IDEzLjgyNC01MC4xNzYtMC41MTItNTAuMTc2LTMxLjIzMnMyMi41MjgtNjcuMDcyIDUwLjE3Ni04MC4zODRjMjcuMTM2LTEzLjgyNCA0OS42NjQgMCA0OS42NjQgMzEuMjMyek03NjAuMzIgNjAyLjYyNGMwIDMwLjcyLTIyLjUyOCA2Ny4wNzItNDkuNjY0IDgwLjM4NC0yNy42NDggMTMuODI0LTQ5LjY2NC0wLjUxMi00OS42NjQtMzEuMjMyczIyLjUyOC02Ny4wNzIgNDkuNjY0LTgwLjM4NGMyNy4xMzYtMTMuODI0IDQ5LjY2NCAwLjUxMiA0OS42NjQgMzEuMjMyek04NjcuODQgNDI4LjAzMmMwIDMwLjcyLTIyLjUyOCA2Ny4wNzItNDkuNjY0IDgwLjM4NC0yNy42NDggMTMuODI0LTUwLjE3Ni0wLjUxMi01MC4xNzYtMzEuMjMyczIyLjUyOC02Ny4wNzIgNTAuMTc2LTgwLjM4NGMyNy4xMzYtMTMuODI0IDQ5LjY2NCAwIDQ5LjY2NCAzMS4yMzJ6TTI3MC44NDggNTM4LjExMmMwIDMwLjcyLTIyLjAxNiA0MS45ODQtNDguNjQgMjQuNTc2LTI3LjEzNi0xNi44OTYtNDguNjQtNTUuODA4LTQ4LjY0LTg2LjUyOCAwLTMwLjcyIDIyLjAxNi00MS45ODQgNDguNjQtMjQuNTc2IDI2LjYyNCAxNi44OTYgNDguNjQgNTUuODA4IDQ4LjY0IDg2LjUyOHpNNDMyLjEyOCA4MjMuMjk2YzAgMzAuNzItMjIuMDE2IDQxLjk4NC00OC42NCAyNC41NzYtMjYuNjI0LTE3LjQwOC00OC42NC01NS44MDgtNDguNjQtODYuNTI4IDAtMzAuNzIgMjIuMDE2LTQxLjk4NCA0OC42NC0yNC41NzYgMjYuNjI0IDE2Ljg5NiA0OC42NCA1NS44MDggNDguNjQgODYuNTI4eiIvPjwvc3ZnPg==" parent="1" vertex="1">
          <mxGeometry x="92.5" y="274.5" width="56" height="56" as="geometry" />
        </mxCell>
        <mxCell id="X9pPTWAd0B1B3PWVvgkX-3" value="&lt;font style=&quot;font-size: 21px;&quot;&gt;pre master&lt;/font&gt;" style="text;html=1;strokeColor=none;fillColor=none;align=center;verticalAlign=middle;whiteSpace=wrap;rounded=0;fontColor=#4A919B;" parent="1" vertex="1">
          <mxGeometry x="498" y="330.5" width="165" height="30" as="geometry" />
        </mxCell>
        <mxCell id="X9pPTWAd0B1B3PWVvgkX-4" value="" style="shape=image;verticalLabelPosition=bottom;verticalAlign=top;imageAspect=0;aspect=fixed;image=data:image/svg+xml,PHN2ZyB4bWxuczp4bGluaz0iaHR0cDovL3d3dy53My5vcmcvMTk5OS94bGluayIgeG1sbnM9Imh0dHA6Ly93d3cudzMub3JnLzIwMDAvc3ZnIiBoZWlnaHQ9IjIwMCIgd2lkdGg9IjIwMCIgdmVyc2lvbj0iMS4xIiB2aWV3Qm94PSIwIDAgMTAyNCAxMDI0IiBjbGFzcz0iaWNvbiI+PHBhdGggZmlsbD0iIzRBOTE5QiIgZD0iTTQyMS4zNzYgNDgxLjI4czExNy4yNDggMjQuNTc2IDE3NS4xMDQtOC43MDRjMCAwLTg5LjYgNzAuMTQ0LTg5LjYgMTY2LjQgMC41MTItMC41MTItOC4xOTItMTIxLjM0NC04NS41MDQtMTU3LjY5NnpNNDM4Ljc4NCA5NjkuMjE2czY4LjYwOCA2LjY1NiA2OC42MDgtODAuODk2YzAgMCAzLjA3MiA4OC41NzYgNjUuMDI0IDc4LjMzNiAwIDAuNTEyLTUwLjY4OCAyMi4wMTYtMTMzLjYzMiAyLjU2ek0xNjEuMjggMjM4LjA4cy0zMC4yMDggNjUuNTM2IDExLjI2NCA5MS42NDhjMCAwLTY3LjA3Mi0xNy40MDgtODEuNDA4IDM3LjM3NiAwIDAgOC43MDQtODIuOTQ0IDcwLjE0NC0xMjkuMDI0ek04NTcuNiAyMjcuMzI4czQ5LjE1MiA1MC4xNzYgMS4wMjQgODEuNDA4YzAgMCA1OC44OC0xOC40MzIgNjYuNTYgMzYuMzUyIDAgMCA1LjEyLTY5LjYzMi02Ny41ODQtMTE3Ljc2eiIvPjxwYXRoIGZpbGw9IiM0QTkxOUIiIGQ9Ik00NDMuMzkyIDk3MC43NTJjLTUuNjMyIDAtMTAuNzUyLTEuMDI0LTE1LjM2LTMuMDcybC0yNzAuODQ4LTE1Ny4xODQtMS41MzYtMS4wMjRzLTEuMDI0LTEuMDI0LTQuNjA4LTIuNTZjLTUxLjItMjkuMTg0LTYyLjk3Ni05NC4yMDgtNjUuNTM2LTEyMC44MzJWMzg2LjU2YzAtMy4wNzIgMC41MTItNy4xNjggMS4wMjQtMTEuMjY0bDAuNTEyLTMuNTg0IDEuMDI0LTIuNTZjMTkuNDU2LTUwLjY4OCA3Ni44LTUxLjIgMTAzLjkzNi00NC4wMzJsLTEuNTM2IDUuNjMyIDQuMDk2LTYuMTQ0TDQ3Ni4xNiA0ODYuNGwxOC45NDQgMzcuODg4YzIwLjk5MiAzNi44NjQgMjkuMTg0IDc3LjgyNCAzMi43NjggOTkuODR2MjU4LjA0OGMtNC42MDggNTYuMzItMzYuODY0IDc2LjI4OC01NS44MDggODIuOTQ0LTEuMDI0IDAuNTEyLTE1LjM2IDUuNjMyLTI4LjY3MiA1LjYzMnogbS0yNjIuMTQ0LTE5Ni4wOTZsMjYzLjE2OCAxNTIuNTc2YzEyLjI4OC0wLjUxMiAzNi44NjQtNi42NTYgNDAuNDQ4LTQ4LjEyOHYtMjUwLjM2OGMtNC42MDgtMzEuNzQ0LTIwLjk5Mi0xMDMuOTM2LTcyLjE5Mi0xMjhMMzIyLjU2IDQ0NS40NGwxLjUzNiAzLjA3Mi0xNDIuMzM2LTgyLjQzMmMtMi4wNDgtMC41MTItNDAuNDQ4LTkuMjE2LTUyLjczNiAxNS44NzItMC41MTIgMi41Ni0wLjUxMiA0LjYwOC0wLjUxMiA2LjE0NHYyOTQuNGMxLjUzNiAxNi44OTYgOS43MjggNjcuMDcyIDQzLjUyIDg2LjUyOCAzLjU4NCAyLjA0OCA2LjY1NiA0LjA5NiA5LjIxNiA1LjYzMnoiLz48cGF0aCBmaWxsPSIjNEE5MTlCIiBkPSJNODM3LjYzMiAyMTIuOTkyYzYuNjU2IDQuMDk2IDEyLjggNy4xNjggMTguNDMyIDEwLjc1MmwxLjUzNiAxLjAyNCAxLjUzNiAxLjUzNmM1LjEyIDQuMDk2IDEwLjc1MiA5LjIxNiAxNi4zODQgMTUuMzYgNi4xNDQgMTEuNzc2IDUuNjMyIDMzLjI4IDQuNjA4IDQ5LjE1Mi0xLjAyNCAxMi4yODgtNi42NTYgMzAuMjA4LTI2LjYyNCA0NC41NDRsLTEuMDI0IDAuNTEyLTI0Ny44MDggMTU2LjY3MmMtMjYuNjI0IDE0LjMzNi02Mi45NzYgMTguNDMyLTk2LjI1NiAxOC40MzItNDAuOTYgMC03Ny44MjQtNi42NTYtODkuMDg4LTguNzA0bC0zLjA3Mi0wLjUxMi0yNDUuMjQ4LTE0Mi4zMzZjLTM5LjQyNC0yOS42OTYtMjguMTYtODUuNTA0LTE1LjM2LTExMy42NjRsMi41Ni02LjE0NCAyNjMuNjgtMTY2LjkxMmMyOS4xODQtMTQuMzM2IDEwNC40NDgtNDMuMDA4IDE3My4wNTYtMS4wMjQgMy41ODQgMi41NiA1OC4zNjggMzQuMzA0IDExOS4yOTYgNjkuNjMyTTQzMS42MTYgNDYwLjhjNDAuNDQ4IDcuMTY4IDExNC4xNzYgMTMuODI0IDE1Mi41NzYtNi4xNDRsMjQ0LjczNi0xNTUuMTM2YzcuMTY4LTUuNjMyIDguMTkyLTEwLjI0IDguNzA0LTEyLjggMS4wMjQtMTEuMjY0LTkuNzI4LTI2LjYyNC0xNS4zNi0zMi43NjgtNTUuODA4LTMyLjI1Ni0yNDMuNzEyLTE0MS4zMTItMjUwLjM2OC0xNDUuNDA4LTQ5LjY2NC0zMC43Mi0xMDcuMDA4LTkuMjE2LTEzMC4wNDggMi41NkwxOTIuNTEyIDI2OC44Yy00LjA5NiAxMi4yODgtMTIuMjg4IDQyLjQ5NiAzLjU4NCA1NS44MDhsMjM1LjUyIDEzNi4xOTJ6Ii8+PHBhdGggZmlsbD0iIzRBOTE5QiIgZD0iTTgzMS40ODggMjk5LjAwOGM0LjA5Ni0xLjAyNCAzOC40LTExLjI2NCA2Ni4wNDggNi4xNDQgNy4xNjggNC42MDggMTcuOTIgMTEuNzc2IDI0LjA2NCAyNC41NzYgMS4wMjQgNS42MzIgNC4wOTYgMTAuNzUyIDQuNjA4IDE2Ljg5NnYyLjA0OGwtMS4wMjQgMzIzLjA3MmMtNS4xMiAzNS4zMjgtMjIuNTI4IDkxLjY0OC03Ny4zMTIgMTI1LjQ0bC01LjEyIDMuNTg0aC0xLjAyNGwtMjYyLjE0NCAxNjUuODg4LTQuNjA4IDAuNTEyYy00LjA5NiAwLjUxMi04LjcwNCAxLjAyNC0xMi44IDEuMDI0LTE1Ljg3MiAwLTMwLjIwOC01LjEyLTQxLjk4NC0xNC44NDgtMjQuNTc2LTIwLjQ4LTMyLjc2OC01NS44MDgtMzUuMzI4LTczLjcyOGwtMS4wMjQtMjUyLjkyOGgxLjUzNmM2LjE0NC05Ni43NjggODguNTc2LTE2NC44NjQgOTYuNzY4LTE3MS4wMDhsLTAuNTEyLTAuNTEyTDgyOS40NCAyOTkuNTJtLTMwMS4wNTYgNTY3LjgwOGMwLjUxMiAxMC4yNCA1LjEyIDQxLjQ3MiAxOS45NjggNTMuNzYgMy4wNzIgMi41NiA3LjY4IDUuNjMyIDE2LjM4NCA1LjEybDI2NC43MDQtMTY3LjkzNmM1Ni4zMi0zOC40IDUzLjc2LTExNS43MTIgNTMuNzYtMTE2LjIyNGwtMC41MTItMzIuMjU2IDEuMDI0LTI1MC4zNjhoLTAuNTEyYy0xLjUzNi0xMi44LTcuMTY4LTE2LjM4NC04LjcwNC0xNy40MDgtOC43MDQtNS42MzItMjMuNTUyLTMuMDcyLTI4LjY3Mi0yLjA0OGwtMjM1LjUyIDE0OC45OTJjLTEuMDI0IDAuNTEyLTgwLjg5NiA2NS4wMjQtODAuODk2IDE0OS41MDRoLTEuNTM2bDAuNTEyIDIyOC44NjR6TTQzNS4yIDI2NC4xOTJjMCAyNy42NDggMzEuNzQ0IDUwLjE3NiA3MS4xNjggNTAuMTc2czcxLjE2OC0yMi41MjggNzEuMTY4LTUwLjE3Ni0zMS43NDQtNTAuMTc2LTcxLjE2OC01MC4xNzZTNDM1LjIgMjM2LjU0NCA0MzUuMiAyNjQuMTkyeiIvPjxwYXRoIGZpbGw9IiM0QTkxOUIiIGQ9Ik02NjMuNTUyIDc4Mi44NDhjMCAzMC43Mi0yMi41MjggNjcuMDcyLTQ5LjY2NCA4MC4zODQtMjcuNjQ4IDEzLjgyNC01MC4xNzYtMC41MTItNTAuMTc2LTMxLjIzMnMyMi41MjgtNjcuMDcyIDUwLjE3Ni04MC4zODRjMjcuMTM2LTEzLjgyNCA0OS42NjQgMCA0OS42NjQgMzEuMjMyek03NjAuMzIgNjAyLjYyNGMwIDMwLjcyLTIyLjUyOCA2Ny4wNzItNDkuNjY0IDgwLjM4NC0yNy42NDggMTMuODI0LTQ5LjY2NC0wLjUxMi00OS42NjQtMzEuMjMyczIyLjUyOC02Ny4wNzIgNDkuNjY0LTgwLjM4NGMyNy4xMzYtMTMuODI0IDQ5LjY2NCAwLjUxMiA0OS42NjQgMzEuMjMyek04NjcuODQgNDI4LjAzMmMwIDMwLjcyLTIyLjUyOCA2Ny4wNzItNDkuNjY0IDgwLjM4NC0yNy42NDggMTMuODI0LTUwLjE3Ni0wLjUxMi01MC4xNzYtMzEuMjMyczIyLjUyOC02Ny4wNzIgNTAuMTc2LTgwLjM4NGMyNy4xMzYtMTMuODI0IDQ5LjY2NCAwIDQ5LjY2NCAzMS4yMzJ6TTI3MC44NDggNTM4LjExMmMwIDMwLjcyLTIyLjAxNiA0MS45ODQtNDguNjQgMjQuNTc2LTI3LjEzNi0xNi44OTYtNDguNjQtNTUuODA4LTQ4LjY0LTg2LjUyOCAwLTMwLjcyIDIyLjAxNi00MS45ODQgNDguNjQtMjQuNTc2IDI2LjYyNCAxNi44OTYgNDguNjQgNTUuODA4IDQ4LjY0IDg2LjUyOHpNNDMyLjEyOCA4MjMuMjk2YzAgMzAuNzItMjIuMDE2IDQxLjk4NC00OC42NCAyNC41NzYtMjYuNjI0LTE3LjQwOC00OC42NC01NS44MDgtNDguNjQtODYuNTI4IDAtMzAuNzIgMjIuMDE2LTQxLjk4NCA0OC42NC0yNC41NzYgMjYuNjI0IDE2Ljg5NiA0OC42NCA1NS44MDggNDguNjQgODYuNTI4eiIvPjwvc3ZnPg==" parent="1" vertex="1">
          <mxGeometry x="552.5" y="274.5" width="56" height="56" as="geometry" />
        </mxCell>
        <mxCell id="Y-8dY0YNgsbpWW9C8-OF-1" value="&lt;font style=&quot;font-size: 21px;&quot;&gt;pre master key&lt;/font&gt;" style="text;html=1;strokeColor=none;fillColor=none;align=center;verticalAlign=middle;whiteSpace=wrap;rounded=0;fontColor=#4A919B;" vertex="1" parent="1">
          <mxGeometry x="258" y="401" width="165" height="30" as="geometry" />
        </mxCell>
      </root>
    </mxGraphModel>
  </diagram>
</mxfile>
